Coordinates
version=1
nRows=26
nColumns=22
inDegrees=yes

Units are S.I. units (second, meters, Newtons, ...)
If the header above contains a line with 'inDegrees', this indicates whether rotational values are in degrees (yes) or radians (no).

endheader
time	pelvis_tilt	pelvis_list	pelvis_rotation	pelvis_tx	pelvis_ty	pelvis_tz	hip_flexion_r	hip_adduction_r	hip_rotation_r	knee_angle_r	ankle_angle_r	subtalar_angle_r	hip_flexion_l	hip_adduction_l	hip_rotation_l	knee_angle_l	ankle_angle_l	subtalar_angle_l	lumbar_extension	lumbar_bending	lumbar_rotation
      4.85000000	      2.27074466	    -11.09576848	   -398.42880631	      0.68593450	      0.92489927	     -0.47961686	      2.95986288	     17.78813256	    -13.22108666	    -16.25456670	      7.36522395	    -11.92082486	     13.35442365	    -13.98872367	      6.19436518	    -72.11602810	      7.99586143	    -14.63426983	    -13.33900798	      7.14302826	    -13.73647419
      4.86000000	      2.13319333	    -11.08746482	   -399.91009198	      0.68985339	      0.92593034	     -0.47283785	      1.96280091	     18.02055852	    -11.75229174	    -15.71608680	      7.38340252	    -11.88087432	     14.45549705	    -13.88610925	      5.95943430	    -71.34286779	      9.18526401	    -15.34679846	    -13.46994141	      6.91788247	    -12.93309570
      4.87000000	      2.00207513	    -11.09537493	   -401.37289880	      0.69369777	      0.92690617	     -0.46623675	      0.96327516	     18.21372553	    -10.30444961	    -15.20126290	      7.44563347	    -11.81500485	     15.47057076	    -13.77440814	      5.74428880	    -70.34467435	     10.32767966	    -15.99857671	    -13.63354448	      6.72702768	    -12.14564990
      4.88000000	      1.86980219	    -11.10967090	   -402.82413532	      0.69750865	      0.92782508	     -0.45971764	     -0.04623778	     18.37082260	     -8.86518253	    -14.67842329	      7.52203095	    -11.73211682	     16.39726651	    -13.67716680	      5.49987155	    -69.11456330	     11.29584487	    -16.44825288	    -13.80009577	      6.55937297	    -11.40090234
      4.89000000	      1.75296129	    -11.14884987	   -404.24266819	      0.70133985	      0.92869563	     -0.45334358	     -1.05365439	     18.48423478	     -7.49432427	    -14.21507153	      7.66882479	    -11.60742045	     17.20238339	    -13.56882890	      5.26001988	    -67.65981363	     12.23321002	    -16.90802717	    -14.00192430	      6.42476711	    -10.68005107
      4.90000000	      1.62455764	    -11.19358168	   -405.65338434	      0.70515829	      0.92948605	     -0.44702645	     -2.04127937	     18.57040445	     -6.09731287	    -13.78622703	      7.82154433	    -11.46261010	     17.91344048	    -13.48097954	      4.97323325	    -65.98277471	     12.99004271	    -17.19977362	    -14.19559673	      6.31736753	     -9.98765582
      4.91000000	      1.48222143	    -11.24385728	   -407.05854806	      0.70896024	      0.93019159	     -0.44076522	     -2.99485485	     18.63272922	     -4.65819608	    -13.41883058	      7.96886904	    -11.30755676	     18.52622379	    -13.41147140	      4.63600542	    -64.08973482	     13.59956515	    -17.40184747	    -14.38139237	      6.23867329	     -9.30563331
      4.92000000	      1.35058123	    -11.30361212	   -408.45963643	      0.71278011	      0.93084267	     -0.43452834	     -3.92503531	     18.65031254	     -3.22703133	    -13.14155440	      8.14997555	    -11.10386552	     18.99695882	    -13.35052810	      4.21413680	    -61.97188708	     14.18217205	    -17.63702551	    -14.57489771	      6.17174453	     -8.64247229
      4.93000000	      1.19423193	    -11.35709739	   -409.85872154	      0.71657994	      0.93137758	     -0.42831074	     -4.79674364	     18.65178253	     -1.74126572	    -12.94023651	      8.30060230	    -10.92482333	     19.38307541	    -13.30971386	      3.72811432	    -59.66105617	     14.58090513	    -17.77585938	    -14.73900814	      6.13064419	     -7.98094549
      4.94000000	      1.04280604	    -11.40121876	   -411.25089046	      0.72038679	      0.93181846	     -0.42208538	     -5.61234777	     18.60955705	     -0.28299617	    -12.84483994	      8.48144396	    -10.72469771	     19.65188677	    -13.26816169	      3.15080653	    -57.15746383	     14.87431909	    -17.88598611	    -14.88745358	      6.08782897	     -7.32960216
      4.95000000	      0.88674940	    -11.43098239	   -412.62786410	      0.72419977	      0.93213355	     -0.41585732	     -6.35392852	     18.53616577	      1.13614885	    -12.85604628	      8.69644646	    -10.52000085	     19.83024768	    -13.22264447	      2.49922665	    -54.49374967	     15.00914952	    -17.92032975	    -15.00854627	      6.04933432	     -6.68565294
      4.96000000	      0.74221310	    -11.44284916	   -413.97780615	      0.72803312	      0.93233289	     -0.40961645	     -7.02708667	     18.42103603	      2.48077408	    -12.96672889	      8.95604964	    -10.29844332	     19.91519637	    -13.15657292	      1.76480191	    -51.68789223	     14.96961553	    -17.82130197	    -15.10642277	      5.99921903	     -6.06037206
      4.97000000	      0.60377924	    -11.44217864	   -415.29080240	      0.73189252	      0.93239853	     -0.40338185	     -7.62937282	     18.28014723	      3.75353095	    -13.17425440	      9.28021836	    -10.06660500	     19.92557475	    -13.06696169	      0.96831208	    -48.77519543	     14.75254090	    -17.50480488	    -15.18350531	      5.94796223	     -5.44295196
      4.98000000	      0.49781170	    -11.42953327	   -416.55553272	      0.73578987	      0.93235922	     -0.39715679	     -8.16484796	     18.09459774	      4.91629366	    -13.49576720	      9.63476882	     -9.79572482	     19.84956805	    -12.93550072	      0.07855136	    -45.76976878	     14.32169769	    -16.80035540	    -15.25679386	      5.87476680	     -4.87823889
      4.99000000	      0.39713308	    -11.39700647	   -417.76726852	      0.73974913	      0.93215996	     -0.39094908	     -8.62435151	     17.88968695	      5.99254116	    -13.90023219	     10.05963242	     -9.52282026	     19.73148005	    -12.76170264	     -0.86392610	    -42.70929381	     13.72705999	    -15.73834450	    -15.29863407	      5.79978298	     -4.31565672
      5.00000000	      0.32545890	    -11.36129243	   -418.92551771	      0.74379638	      0.93184621	     -0.38472143	     -9.05858588	     17.65683461	      7.02249466	    -14.35818500	     10.53715150	     -9.26673563	     19.53809857	    -12.54067378	     -1.90634676	    -39.60714562	     13.05183925	    -14.43070976	    -15.33422243	      5.71531730	     -3.81928224
      5.01000000	      0.26327070	    -11.30786523	   -420.02028415	      0.74794890	      0.93137422	     -0.37851933	     -9.41643798	     17.40559354	      7.91240338	    -14.90674949	     11.05611447	     -9.01760621	     19.31340259	    -12.25370381	     -2.97966854	    -36.49479590	     12.21615832	    -12.78851902	    -15.34304842	      5.62921599	     -3.32679097
      5.02000000	      0.22482644	    -11.24930851	   -421.05508920	      0.75224028	      0.93077066	     -0.37230118	     -9.75426075	     17.13029050	      8.73496084	    -15.49099927	     11.62722009	     -8.79747889	     19.03872539	    -11.89244690	     -4.08400876	    -33.40269648	     11.35282947	    -10.99692574	    -15.33887914	      5.54445504	     -2.90215455
      5.03000000	      0.20698796	    -11.18357406	   -422.02762723	      0.75665916	      0.93003901	     -0.36607782	    -10.06569593	     16.83310903	      9.45728899	    -16.11108689	     12.23208650	     -8.59972445	     18.73058524	    -11.44436408	     -5.14246440	    -30.36580043	     10.46110067	     -9.12571541	    -15.32184510	      5.45618048	     -2.52913497
      5.04000000	      0.20734738	    -11.09903227	   -422.93452351	      0.76121564	      0.92916419	     -0.35985631	    -10.34448938	     16.51098883	     10.08333248	    -16.75477088	     12.90320284	     -8.40803185	     18.41812495	    -10.89899137	     -6.06573992	    -27.43321326	      9.59516177	     -7.23564739	    -15.27843298	      5.36530276	     -2.23268393
      5.05000000	      0.19799645	    -10.97267139	   -423.78056761	      0.76588313	      0.92810240	     -0.35366644	    -10.53729081	     16.17825936	     10.56200942	    -17.44375226	     13.59022478	     -8.20980229	     18.16091244	    -10.27648633	     -6.75513671	    -24.66249811	      8.72452483	     -5.32831686	    -15.17735202	      5.28827586	     -1.98854057
      5.06000000	      0.18032805	    -10.80756863	   -424.57758272	      0.77061861	      0.92688445	     -0.34747090	    -10.66558625	     15.83799424	     10.93220218	    -18.15150900	     14.28321201	     -7.99937593	     17.95121204	     -9.60144825	     -7.18390450	    -22.08470980	      7.92419478	     -3.50128890	    -15.02353908	      5.21862170	     -1.79560358
      5.07000000	      0.18189979	    -10.62724286	   -425.33170043	      0.77542305	      0.92558741	     -0.34121185	    -10.79052499	     15.47083822	     11.22226689	    -18.83976054	     14.99949266	     -7.78010515	     17.73657583	     -8.88055430	     -7.33874617	    -19.71842934	      7.30813574	     -1.83664459	    -14.84762720	      5.13808185	     -1.67237204
      5.08000000	      0.16048894	    -10.41930270	   -426.06834763	      0.78021029	      0.92418150	     -0.33486886	    -10.87591999	     15.11452632	     11.46135704	    -19.52085993	     15.69165366	     -7.54471755	     17.56113602	     -8.18299027	     -7.24463469	    -17.61747630	      6.84812616	     -0.31690275	    -14.62123635	      5.07410928	     -1.56602784
      5.09000000	      0.15355609	    -10.22058198	   -426.77786337	      0.78499772	      0.92277075	     -0.32839370	    -10.99214240	     14.74454646	     11.63458857	    -20.16559945	     16.36106629	     -7.31811338	     17.35938486	     -7.50686036	     -6.93860244	    -15.79683397	      6.60880177	      0.97357910	    -14.39482560	      5.00322905	     -1.49662448
      5.10000000	      0.12364098	    -10.01795806	   -427.49005240	      0.78970262	      0.92133724	     -0.32172504	    -11.12865745	     14.40010333	     11.86303894	    -20.75544327	     16.98524542	     -7.07527711	     17.18141877	     -6.91479485	     -6.50330086	    -14.32701474	      6.50144337	      2.12544499	    -14.12969064	      4.94746537	     -1.44023017
